<svg xmlns:xlink="http://www.w3.org/1999/xlink" xmlns="http://www.w3.org/2000/svg" viewBox="0 0 402 35" width="402"  height="35" ><path d="M345.13 8.67h-2v8.67h2v8.64h-2v7.846h23.565V28.12h-17.02v-2.13h2v-6.667h15.643V17.31h-2v-3.695h-15.644V8.68h2V6.592h16.775V.885h-23.32V8.67zm-21.35 0h-2v8.67h2v8.64h-2v7.846h6.544V25.99h2v-8.68h-2V8.68h2V6.592h10.626V.885h-27.795v5.707h10.626V8.67zm-38.954 0h-2.03c-1.367 2.517-2.134 5.46-2.142 8.67h2c.004 3.2.74 6.133 2.083 8.64h-2.016c2.836 5.32 8.39 8.73 15.45 8.73 4.72 0 8.362-1.18 10.723-2.9v-5.83h-.976c-2.373 1.93-5.59 2.877-9.453 2.877-2.672 0-5.4-1.006-7.504-2.867h2.033c-2.253-1.977-3.796-4.93-3.796-8.674v-.006h-2c.02-3.485 1.456-6.535 3.72-8.63h2.06c1.994-1.8 4.62-2.875 7.486-2.875 3.29 0 6.493 1.103 8.824 2.875h1.015V2.902C308.137 1.328 304.35 0 300.168 0c-6.797 0-12.42 3.384-15.342 8.67zm-8.845.01v8.59h2v4.916c0 1.366-.15 2.66-.44 3.804h-2.003c-1.474 5.805-6.47 8.72-12.838 8.72-6.414 0-11.35-2.92-12.8-8.73h2c-.285-1.14-.434-2.432-.434-3.794V17.34h-2V8.67h2V.885h6.543V8.68h-2v8.59h2v4.572c0 1.68.337 3.09.973 4.148h-1.994c1.095 1.817 3.07 2.72 5.71 2.72 2.645 0 4.64-.906 5.75-2.73h2.006c.64-1.058.983-2.463.983-4.138V17.34h-2V8.67h2V.885h6.542V8.68h-2zm-75.824-.01h-2v8.67h2v8.64h-2v7.846h6.543V25.99h2v-8.68h-2V8.68h2V6.592h10.625V.885H189.53v5.707h10.625V8.67zm-34.667 0h-2.004c-.008.143-.012.287-.012.43 0 4.21 2.062 6.655 4.794 8.24h2.123c.84.47 1.74.865 2.66 1.205l4.23 1.526c3 1.133 4.477 2.215 4.477 4.577 0 .455-.078.906-.243 1.334h-1.99c-.608 1.623-2.457 2.927-6.014 2.927-2.996 0-6.818-1.286-8.758-2.926h-.69v6.125c2.756 1.722 6.348 2.607 10.037 2.607 6.973 0 11.396-3.62 12.1-8.72h1.995c.07-.485.103-.982.103-1.492 0-3.16-.977-5.442-2.99-7.188h-2.082c-1.203-1.03-2.766-1.873-4.7-2.603l-4.33-1.638c-3-1.042-4.182-1.836-4.182-4.02 0-.125.01-.248.027-.37h2.01c.274-1.62 2.142-2.875 5.18-2.875 3.197 0 6.2 1.18 7.772 2.558h.492v-6.15C183.97 1.182 180.92 0 177.18 0c-7.032 0-11.403 4.132-11.692 8.67zm-7.378.01v8.63h2v8.68h-2v7.836h-6.345l-5.23-7.846h2.02l-5.76-8.64h-2.047l-.593-.897c-1.328-2.034-2.755-4.465-3.394-5.507h-.05c.05 1.22.098 3.972.1 6.374h2v8.68h-2v7.836h-6.445V25.98h2v-8.64h-2V8.67h2V.885h6.346l5.075 7.795h-1.966l5.57 8.63h2.046l.836 1.285c1.77 2.755 2.706 4.33 3.444 5.46h.05c-.05-1.23-.1-4.034-.1-6.444v-.27h-2V8.67h2V.885h6.445V8.68h-2zm63.396-.01V.885h12.938c6.067 0 9.743 3.348 10.8 7.795h-1.988c.203.88.306 1.804.306 2.752 0 2.245-.513 4.222-1.467 5.838h1.958c-1.22 2.01-3.143 3.447-5.625 4.13l3.517 4.59h-1.992l5.675 7.344v.492h-7.133l-5.852-7.846h1.993l-2.947-3.99h-3.64v4h-2v7.836h-6.543V25.98h2v-8.64h-2V8.67h2zm4.542.01v8.01h5.61c3.787 0 5.36-2.28 5.36-5.258 0-1.045-.248-1.988-.75-2.762h1.965c-.865-1.28-2.448-2.078-4.773-2.078h-5.412V8.68h-2zM63.7 8.67C66.62 3.384 72.24 0 79.037 0c4.182 0 7.97 1.328 10.135 2.902V8.68h-1.015c-2.33-1.772-5.535-2.875-8.824-2.875-2.867 0-5.492 1.074-7.486 2.875h-2.06c-2.264 2.095-3.7 5.145-3.72 8.63h2v.006c0 3.744 1.543 6.697 3.796 8.674H69.83c2.103 1.86 4.832 2.867 7.504 2.867 3.862 0 7.08-.946 9.453-2.877h.976v5.83c-2.36 1.72-6.002 2.9-10.725 2.9-7.056 0-12.612-3.41-15.446-8.73h2.016c-1.342-2.507-2.08-5.44-2.083-8.64h-2c.008-3.21.775-6.153 2.143-8.67h2.03zm-28.738 0V.885H58.28v5.707H41.503V8.68h-2v4.935h15.644v3.695h2v1.973H41.503v6.707h-2v2.13h17.02v5.706H32.96V25.98h2v-8.64h-2V8.67h2zm65.434.01c-2.2 2.126-3.5 5.206-3.53 8.59h2v.046c0 3.417 1.36 6.555 3.62 8.674H94.44h6.045c1.904 1.786 4.447 2.877 7.35 2.877 2.902 0 5.444-1.09 7.35-2.877h2.01c2.247-2.114 3.603-5.238 3.61-8.64h-2c-.012-3.417-1.32-6.53-3.54-8.67h7.94c1.358 2.5 2.124 5.417 2.142 8.6h2v.046c0 3.197-.756 6.168-2.117 8.674h-2.006c-2.892 5.315-8.505 8.72-15.39 8.72-6.89 0-12.505-3.41-15.395-8.73h2c-1.36-2.5-2.116-5.462-2.12-8.65h-2c.007-3.21.775-6.153 2.143-8.67h2.03c2.92-5.286 8.544-8.67 15.34-8.67 6.8 0 12.426 3.388 15.347 8.68h-7.962c-1.888-1.784-4.427-2.875-7.384-2.875-2.957 0-5.496 1.09-7.384 2.875h-2.056zm-72.6 8.59h2v.144c0 3.33-.598 6.225-1.77 8.576H26.02c-2.552 5.113-7.81 7.836-15.492 7.836H0V25.98h2v-8.64H0V8.67h2V.885h10.478c8.028 0 12.858 3.22 15.304 7.795h-1.97c1.34 2.553 1.954 5.522 1.982 8.59zm-7.937-8.6c-1.79-1.425-4.22-2.078-7.134-2.078h-4.33V8.68h-2v8.59h2v8.72h-2v2.13h4.33c3.2 0 5.736-.633 7.515-2.14h2.01c1.963-1.668 3.003-4.44 3.003-8.566v-.074h-2c-.028-4.12-1.226-6.943-3.33-8.67h1.935zm378.153.01c1.345 2.556 1.962 5.528 1.99 8.6h2v.144c0 3.33-.6 6.225-1.77 8.576h-2.005c-2.552 5.113-7.81 7.836-15.492 7.836h-10.528V25.99h2v-8.64h-2V8.68h6.395v8.6h2V26h-2v2.13h4.33c3.2 0 5.735-.633 7.514-2.14h2.012c1.96-1.668 3-4.44 3-8.566v-.074h-2c-.028-4.12-1.226-6.943-3.33-8.67h9.862C397.54 4.104 392.71.885 384.684.885h-10.48V8.68h6.396V6.592h4.33c2.92 0 5.354.656 7.144 2.088h5.937z" fill="#FFFFFF"></path></svg>