<svg xmlns:xlink="http://www.w3.org/1999/xlink" xmlns="http://www.w3.org/2000/svg" viewBox="0 0 72.89 21.61" width="73"  height="22" ><path d="M0 0v21.61h72.89V0H0zm72.17 10.45h-9.72V.72h9.72v9.73zm-30.97 0h-9.53V.72h9.53v9.73zm.72-9.73h9.55v9.73h-9.55V.72zm-10.97 9.73h-9.53V.72h9.53v9.73zm-10.25 0h-9.54V.72h9.54v9.73zm0 .71v9.73h-9.54v-9.73h9.54zm.72 0h9.53v9.73h-9.53v-9.73zm10.25 0h9.53v9.73h-9.53v-9.73zm10.25 0h9.55v9.73h-9.55v-9.73zm10.26 0h9.56v9.73h-9.56v-9.73zm0-.71V.72h9.56v9.73h-9.56zM10.45.72v9.73H.72V.72h9.73zM.72 11.16h9.73v9.73H.72v-9.73zm61.74 9.73v-9.73h9.72v9.73h-9.72z" fill="#FFFFFF"></path><path d="M7.43 3.06v.61H4.38v1.67h2.88v.61H4.38v2.61h-.66v-5.5h3.71zm5.62 2.73c0-1.62 1.28-2.88 2.89-2.88s2.89 1.26 2.89 2.88c0 1.66-1.28 2.9-2.89 2.9s-2.89-1.24-2.89-2.9zm5.13 0c0-1.25-.98-2.27-2.24-2.27-1.27 0-2.24 1.02-2.24 2.27s.97 2.29 2.24 2.29c1.27 0 2.24-1.03 2.24-2.29zm10.1 2.71v.04h-.75l-1.59-2.23h-.93v2.23h-.66V3.06h1.97c1.12 0 1.75.69 1.75 1.65 0 .89-.6 1.51-1.41 1.6l1.62 2.19zm-2.05-2.79c.84 0 1.2-.34 1.2-1 0-.65-.35-1.04-1.15-1.04h-1.26v2.04h1.21zm20 2.83V3.66h-1.91v-.6h4.47v.61h-1.9v4.88h-.66zm12.16.08V6h-3.12v2.62h-.66V3.13h.66v2.26h3.12V3.13h.66v5.49h-.66zm10.69-5.56v.61h-3.17v1.67h3v.61h-3v2h3.21v.61h-3.86v-5.5h3.82zM7.61 18.61v.04h-.75l-1.59-2.23h-.93v2.23h-.65v-5.49h1.97c1.12 0 1.75.69 1.75 1.65 0 .89-.6 1.51-1.41 1.6l1.61 2.2zm-2.05-2.79c.84 0 1.2-.34 1.2-1 0-.65-.35-1.04-1.15-1.04H4.34v2.04h1.22zm12.37-2.65v.61h-3.17v1.67h3v.61h-3v2h3.21v.61H14.1v-5.49h3.83zm10.31 4.56h.04v.65c-.29.19-.86.43-1.61.43-1.66 0-2.89-1.22-2.89-2.89 0-1.66 1.22-2.89 2.88-2.89.53 0 1.12.13 1.58.42v.65h-.04c-.27-.2-.85-.45-1.53-.45-1.29 0-2.24.97-2.24 2.28s.95 2.28 2.24 2.28c.73-.02 1.27-.25 1.57-.48zm5.29-1.83c0-1.62 1.28-2.88 2.89-2.88s2.89 1.26 2.89 2.88c0 1.66-1.28 2.9-2.89 2.9s-2.89-1.24-2.89-2.9zm5.13 0c0-1.24-.97-2.27-2.24-2.27-1.27 0-2.24 1.02-2.24 2.27s.97 2.29 2.24 2.29c1.26 0 2.24-1.03 2.24-2.29zm9.99 2.71v.04h-.75l-1.59-2.23h-.93v2.23h-.66v-5.49h1.97c1.12 0 1.75.69 1.75 1.65 0 .89-.6 1.51-1.41 1.6l1.62 2.2zm-2.05-2.79c.84 0 1.2-.34 1.2-1 0-.65-.35-1.04-1.15-1.04h-1.26v2.04h1.21zm9.69-2.65c1.98 0 2.83 1.2 2.83 2.77 0 1.53-.81 2.72-2.86 2.72H54.7v-5.49h1.59zm-.94.6v4.28h.92c1.5 0 2.19-.82 2.19-2.11 0-1.38-.67-2.16-2.22-2.16h-.89z" fill="#FFFFFF"></path></svg>