<svg xmlns:xlink="http://www.w3.org/1999/xlink" xmlns="http://www.w3.org/2000/svg" viewBox="0 0 17 26" width="17"  height="26" ><path fill="#FF1464" d="M4 3c2.95 1 6.84 8.93 6.84 8.93a8.361 8.361 0 0 0 1-5.43A15.928 15.928 0 0 1 17 18c-.12 7-8.85 8.05-8.85 8.05a4.63 4.63 0 0 0 1.76-2.87c.29-1.8-2.58-3.8-2.58-3.8-2.48 4.15-1.07 6.67-1.07 6.67S0 23.1 0 19.24c0-3.86 4.22-7.75 4.62-10.79A12.25 12.25 0 0 0 4 3zm2.58 5.51h-.02v.17A13.89 13.89 0 0 1 4.23 14C3.13 15.77 2 17.65 2 19.25c0 1 .88 2.07 2 3a12.38 12.38 0 0 1 1.62-3.9l1.1-1.84 1.84 1.2c.59.45 3.29 2.48 3.44 5a5.47 5.47 0 0 0 3-4.78 12.81 12.81 0 0 0-1.73-6.37c-.19.5-.426.98-.7 1.44l-1.89 3.1-1.62-3.29a39.714 39.714 0 0 0-2.48-4.3z"></path></svg>